<svg width="1920" height="1080" viewBox="0 0 1920 1080" xmlns="http://www.w3.org/2000/svg"><rect width="1920" height="1080" fill="#f7f7f7"/><path d="M 0,1080 C 0,1080 0,135 0,135 C 53.247316410930665,118.12265265819003 106.49463282186133,101.24530531638007 137,97 C 167.50536717813867,92.75469468361993 175.26878512348537,101.14143139266974 208,120 C 240.73121487651463,138.85856860733026 298.4302266841972,168.18896911294098 341,167 C 383.5697733158028,165.81103088705902 411.01030813972596,134.10269215556644 448,113 C 484.98969186027404,91.89730784443357 531.5285407568989,81.4002622647933 559,96 C 586.4714592431011,110.5997377352067 594.8755288326784,150.29625878526036 622,150 C 649.1244711673216,149.70374121473964 694.9693439123873,109.41470259416528 745,116 C 795.0306560876127,122.58529740583472 849.2470955177719,176.04493083807853 875,173 C 900.7529044822281,169.95506916192147 898.0422740165249,110.40557405352075 921,106 C 943.9577259834751,101.59442594647925 992.5838084161285,152.33277294783838 1048,156 C 1103.4161915838715,159.66722705216162 1165.6224923189604,116.26333415512562 1203,100 C 1240.3775076810396,83.73666584487438 1252.9262223080295,94.6138904316591 1281,96 C 1309.0737776919705,97.3861095683409 1352.6726184489219,89.2811041182379 1390,87 C 1427.3273815510781,84.7188958817621 1458.3833038962832,88.26169309538928 1486,95 C 1513.6166961037168,101.73830690461072 1537.7941659659448,111.67212350020492 1563,129 C 1588.2058340340552,146.32787649979508 1614.4400322399379,171.04981290379098 1668,181 C 1721.5599677600621,190.95018709620902 1802.4457050743035,186.12862488463114 1849,176 C 1895.5542949256965,165.87137511536886 1907.7771474628482,150.43568755768445 1920,135 C 1920,135 1920,1080 1920,1080 Z" fill="#2662fb" opacity="0.075"/><path d="M 0,1080 C 0,1080 0,270 0,270 C 39.60889567093177,256.8683457173065 79.21779134186355,243.73669143461308 117,244 C 154.78220865813645,244.26330856538692 190.73773030347763,257.92157997885425 231,275 C 271.26226969652237,292.07842002114575 315.83128744422595,312.57698864996996 351,309 C 386.16871255577405,305.42301135003004 411.9371199196188,277.7704654212659 436,277 C 460.0628800803812,276.2295345787341 482.4202328772989,302.3411496649664 508,319 C 533.5797671227011,335.6588503350336 562.3819485711857,342.86493591886835 610,318 C 657.6180514288143,293.13506408113165 724.051972837958,236.19910665956007 767,240 C 809.948027162042,243.80089334043993 829.4101600769823,308.3386374428914 854,314 C 878.5898399230177,319.6613625571086 908.3073868541127,266.4463435688741 943,263 C 977.6926131458873,259.5536564311259 1017.360292506567,305.87598828161214 1047,315 C 1076.639707493433,324.12401171838786 1096.25144311962,296.04970330467717 1144,286 C 1191.74855688038,275.95029669532283 1267.6339350149533,283.9251984996789 1317,291 C 1366.3660649850467,298.0748015003211 1389.2128168205677,304.2495026966071 1403,298 C 1416.7871831794323,291.7504973033929 1421.514797702776,273.07679071389254 1464,264 C 1506.485202297224,254.92320928610746 1586.727992368328,255.4433344478226 1634,249 C 1681.272007631672,242.5566655521774 1695.5732328239117,229.149871494817 1728,222 C 1760.4267671760883,214.850128505183 1810.9790763360252,213.9571795729094 1846,223 C 1881.0209236639748,232.0428204270906 1900.5104618319874,251.0214102135453 1920,270 C 1920,270 1920,1080 1920,1080 Z" fill="#2662fb" opacity="0.15"/><path d="M 0,1080 C 0,1080 0,405 0,405 C 43.72443225906197,394.8727660719527 87.44886451812394,384.74553214390534 131,395 C 174.55113548187606,405.25446785609466 217.92897418656622,435.8906374963313 244,438 C 270.0710258134338,440.1093625036687 278.83523873561126,413.6919178707694 306,408 C 333.16476126438874,402.3080821292306 378.7300708709889,417.34169102059116 428,424 C 477.2699291290111,430.65830897940884 530.2444777804333,428.9413180468659 566,420 C 601.7555222195667,411.0586819531341 620.292018007278,394.8930367919452 642,399 C 663.707981992722,403.1069632080548 688.5874501904545,427.4865347853535 724,434 C 759.4125498095455,440.5134652146465 805.3581812309039,429.160824066641 845,422 C 884.6418187690961,414.839175933359 917.9798248859292,411.8701689480824 949,407 C 980.0201751140708,402.1298310519176 1008.7225192253788,395.3585001410294 1050,390 C 1091.2774807746212,384.6414998589706 1145.1300982125547,380.6958304877998 1182,388 C 1218.8699017874453,395.3041695122002 1238.7570879244026,413.8581779077713 1267,419 C 1295.2429120755974,424.1418220922287 1331.8415500898343,415.8714578811153 1383,405 C 1434.1584499101657,394.1285421188847 1499.87671171626,380.6559905677674 1532,385 C 1564.12328828374,389.3440094322326 1562.651603045126,411.50457984781497 1598,421 C 1633.348396954874,430.49542015218503 1705.5168761032353,427.3256900409729 1738,415 C 1770.4831238967647,402.6743099590271 1763.2808925419326,381.1926599882934 1787,378 C 1810.7191074580674,374.8073400117066 1865.3595537290337,389.9036700058533 1920,405 C 1920,405 1920,1080 1920,1080 Z" fill="#2662fb" opacity="0.22499999999999998"/><path d="M 0,1080 C 0,1080 0,540 0,540 C 37.28088246541563,550.776544055391 74.56176493083126,561.5530881107819 102,566 C 129.43823506916874,570.4469118892181 147.0338227420906,568.5641916122631 187,573 C 226.9661772579094,577.4358083877369 289.3029441008064,588.190145440166 328,568 C 366.6970558991936,547.809854559834 381.7544008546836,496.6752266270731 414,489 C 446.2455991453164,481.3247733729269 495.6794524804591,517.1089480515416 539,542 C 582.3205475195409,566.8910519484584 619.5277892234805,580.8889811667608 657,567 C 694.4722107765195,553.1110188332392 732.2093906256191,511.3351272814153 755,498 C 777.7906093743809,484.6648727185847 785.634648274043,499.7705097075782 822,514 C 858.365351725957,528.2294902924218 923.2520162782093,541.5828338882723 965,548 C 1006.7479837217907,554.4171661117277 1025.3572866131196,553.8981547393328 1059,562 C 1092.6427133868804,570.1018452606672 1141.3188372693126,586.8245471543969 1189,578 C 1236.6811627306874,569.1754528456031 1283.3673643096308,534.8036566430801 1314,533 C 1344.6326356903692,531.1963433569199 1359.2117054921641,561.9608262732826 1398,561 C 1436.7882945078359,560.0391737267174 1499.7858137217129,527.3530382637889 1530,522 C 1560.2141862782871,516.6469617362111 1557.6450396209839,538.6270206715618 1578,537 C 1598.3549603790161,535.3729793284382 1641.6340277943505,510.1388790499642 1686,518 C 1730.3659722056495,525.8611209500358 1775.818849201614,566.8174631285816 1815,576 C 1854.181150798386,585.1825368714184 1887.0905753991929,562.5912684357093 1920,540 C 1920,540 1920,1080 1920,1080 Z" fill="#2662fb" opacity="0.3"/><path d="M 0,1080 C 0,1080 0,675 0,675 C 30.71539727187789,694.7803218403966 61.43079454375578,714.5606436807932 99,711 C 136.56920545624422,707.4393563192068 180.99221909685474,680.5377471172236 223,671 C 265.00778090314526,661.4622528827764 304.60032906882526,669.2883678503126 330,670 C 355.39967093117474,670.7116321496874 366.6064646278442,664.3087814815257 400,657 C 433.3935353721558,649.6912185184743 488.9738124197979,641.4765062235848 540,635 C 591.0261875802021,628.5234937764152 637.4982856929644,623.7851936241351 658,635 C 678.5017143070356,646.2148063758649 673.0330448083447,673.3827192798748 711,690 C 748.9669551916553,706.6172807201252 830.369535073657,712.6839292563661 874,717 C 917.630464926343,721.3160707436339 923.4888148970277,723.8815636946604 957,721 C 990.5111851029723,718.1184363053396 1051.6752053382313,709.7898159649927 1091,702 C 1130.3247946617687,694.2101840350073 1147.8103637500471,686.959172445369 1184,673 C 1220.1896362499529,659.040827554631 1275.0833396615799,638.3734942535317 1317,653 C 1358.9166603384201,667.6265057464683 1387.8562776036329,717.5468505405045 1421,721 C 1454.1437223963671,724.4531494594955 1491.4915499238884,681.4391035844504 1523,670 C 1554.5084500761116,658.5608964155496 1580.1775227008134,678.6967351216937 1603,694 C 1625.8224772991866,709.3032648783063 1645.7983592728579,719.7739559287747 1688,707 C 1730.2016407271421,694.2260440712253 1794.6290402077548,658.2074411632071 1837,649 C 1879.3709597922452,639.7925588367929 1899.6854798961226,657.3962794183965 1920,675 C 1920,675 1920,1080 1920,1080 Z" fill="#2662fb" opacity="0.375"/><path d="M 0,1080 C 0,1080 0,810 0,810 C 19.17130797242089,828.7902964056461 38.34261594484178,847.5805928112924 87,843 C 135.65738405515822,838.4194071887076 213.80084419305376,810.4679251604769 252,801 C 290.19915580694624,791.5320748395231 288.4540072829432,800.5477065468004 321,814 C 353.5459927170568,827.4522934531996 420.3831266751735,845.3412486523215 455,850 C 489.6168733248265,854.6587513476785 492.01348601636255,846.0872988439132 511,849 C 529.9865139836375,851.9127011560868 565.5629292593761,866.3095559720252 603,851 C 640.4370707406239,835.6904440279748 679.7347969461329,790.6744772679854 732,779 C 784.2652030538671,767.3255227320146 849.4978829560922,788.9925349560336 892,797 C 934.5021170439078,805.0074650439664 954.2736712294981,799.3553829078802 972,805 C 989.7263287705019,810.6446170921198 1005.4074321259154,827.5859334124458 1030,834 C 1054.5925678740846,840.4140665875542 1088.0966002668401,836.3008834423366 1139,843 C 1189.9033997331599,849.6991165576634 1258.2061668067233,867.2105328182078 1302,856 C 1345.7938331932767,844.7894671817922 1365.0787325062665,804.8569852848325 1385,808 C 1404.9212674937335,811.1430147151675 1425.4789031682103,857.361526042462 1470,860 C 1514.5210968317897,862.638473957538 1583.005654820892,821.6969105453195 1627,800 C 1670.994345179108,778.3030894546805 1690.4984775482214,775.8508317762601 1718,778 C 1745.5015224517786,780.1491682237399 1781.0004349862224,786.89976234964 1816,793 C 1850.9995650137776,799.10023765036 1885.4997825068888,804.55011882518 1920,810 C 1920,810 1920,1080 1920,1080 Z" fill="#2662fb" opacity="0.44999999999999996"/><path d="M 0,1080 C 0,1080 0,945 0,945 C 54.96163524330554,944.9097545455459 109.92327048661107,944.8195090910916 145,934 C 180.07672951338893,923.1804909089084 195.26855329686128,901.6317181811792 234,905 C 272.7314467031387,908.3682818188208 335.0025163259439,936.6536181841915 358,941 C 380.9974836740561,945.3463818158085 364.72138139936334,925.7538090820549 399,911 C 433.27861860063666,896.2461909179451 518.1119580766031,886.3311454875895 554,906 C 589.8880419233969,925.6688545124105 576.8307862942241,974.9216089675867 613,993 C 649.1692137057759,1011.0783910324133 734.5648967465002,997.9824186420634 771,987 C 807.4351032534998,976.0175813579366 794.9096267197752,967.1487164641603 830,962 C 865.0903732802248,956.8512835358397 947.7965963743989,955.4227155012949 999,966 C 1050.2034036256011,976.5772844987051 1069.9039877826294,999.1604215306598 1085,982 C 1100.0960122173706,964.8395784693402 1110.5874524950834,907.9355983760651 1141,903 C 1171.4125475049166,898.0644016239349 1221.7462022370373,945.0971849650805 1257,955 C 1292.2537977629627,964.9028150349195 1312.4277385567673,937.6756617636128 1356,930 C 1399.5722614432327,922.3243382363872 1466.5428435358938,934.2001679804683 1500,931 C 1533.4571564641062,927.7998320195317 1533.4008872996571,909.5236663145135 1573,904 C 1612.5991127003429,898.4763336854865 1691.8536072654767,905.7051667614771 1735,908 C 1778.1463927345233,910.2948332385229 1785.1846836384352,907.6556666395779 1810,913 C 1834.8153163615648,918.3443333604221 1877.4076581807824,931.672166680211 1920,945 C 1920,945 1920,1080 1920,1080 Z" fill="#2662fb" opacity="0.525"/></svg>