<svg xmlns="http://www.w3.org/2000/svg" viewBox="0 0 1440 320"><path fill="rgba(51, 153, 255, 1)" fill-opacity="90000" d="M0,96L24,85.3C48,75,96,53,144,48C192,43,240,53,288,96C336,139,384,213,432,240C480,267,528,245,576,224C624,203,672,181,720,165.3C768,149,816,139,864,154.7C912,171,960,213,1008,218.7C1056,224,1104,192,1152,160C1200,128,1248,96,1296,96C1344,96,1392,128,1416,144L1440,160L1440,320L1416,320C1392,320,1344,320,1296,320C1248,320,1200,320,1152,320C1104,320,1056,320,1008,320C960,320,912,320,864,320C816,320,768,320,720,320C672,320,624,320,576,320C528,320,480,320,432,320C384,320,336,320,288,320C240,320,192,320,144,320C96,320,48,320,24,320L0,320Z"></path></svg>